<svg width="20" height="20" viewBox="0 0 20 20" fill="none" xmlns="http://www.w3.org/2000/svg">
<path fill-rule="evenodd" clip-rule="evenodd" d="M10 20C15.5228 20 20 15.5228 20 10C20 4.47715 15.5228 0 10 0C4.47715 0 0 4.47715 0 10C0 15.5228 4.47715 20 10 20ZM9.53493 6.90211C8.91498 6.97389 8.45817 7.34586 8.45817 7.93971C8.45817 8.40957 8.75836 8.74892 9.35221 8.94469C9.41094 8.96427 9.46967 8.98385 9.53493 8.9969V6.90211ZM10.5399 13.1343C11.2316 13.0755 11.7211 12.6514 11.7211 12.0118C11.7211 11.4767 11.4013 11.1178 10.6704 10.9155C10.6313 10.909 10.5856 10.8959 10.5399 10.8829V13.1343ZM10.5464 14.5438L10.553 15.3726H9.49577L9.5023 14.5569C7.34225 14.4003 6.53305 13.1277 6.52 11.9205H8.22976C8.26239 12.5208 8.69962 13.0233 9.53493 13.1343V10.7067L8.97371 10.5827C7.75991 10.3151 6.68967 9.55812 6.68967 8.07676C6.68967 6.51056 7.92958 5.64263 9.50883 5.49906V4.65723H10.566V5.50558C12.217 5.68178 13.2808 6.71286 13.3069 8.07023H11.6362C11.6167 7.54817 11.2316 7.0261 10.5399 6.91516V9.19267L11.0946 9.31014C12.4063 9.59075 13.47 10.2564 13.47 11.8356C13.47 13.3888 12.3345 14.3742 10.5464 14.5438Z" fill="#EF8C5F"/>
</svg>
