<svg width="51" height="32" viewBox="0 0 51 32" fill="none" xmlns="http://www.w3.org/2000/svg">
<rect x="0.384766" width="50" height="32" rx="3" fill="#0F3560"/>
<path d="M28.2365 23.8646H19.9375V8.14075H28.2365V23.8646Z" fill="#FF5F00"/>
<path d="M20.4695 16.0013C20.4695 12.8117 21.8861 9.97044 24.092 8.13943C22.4789 6.8005 20.443 6.00134 18.2303 6.00134C12.9922 6.00134 8.74609 10.4784 8.74609 16.0013C8.74609 21.5243 12.9922 26.0013 18.2303 26.0013C20.443 26.0013 22.4789 25.2022 24.092 23.8633C21.8861 22.0322 20.4695 19.191 20.4695 16.0013Z" fill="#EB001B"/>
<path d="M39.4296 16.0013C39.4296 21.5243 35.1835 26.0013 29.9453 26.0013C27.7327 26.0013 25.6968 25.2022 24.083 23.8633C26.2896 22.0322 27.7062 19.191 27.7062 16.0013C27.7062 12.8117 26.2896 9.97044 24.083 8.13943C25.6968 6.8005 27.7327 6.00134 29.9453 6.00134C35.1835 6.00134 39.4296 10.4784 39.4296 16.0013Z" fill="#F79E1B"/>
<path d="M15.8856 16.0646C15.8856 15.6278 16.1571 15.269 16.6007 15.269C17.0247 15.269 17.3109 15.6123 17.3109 16.0646C17.3109 16.5169 17.0247 16.8602 16.6007 16.8602C16.1571 16.8602 15.8856 16.5014 15.8856 16.0646ZM17.794 16.0646V14.822H17.2815V15.1238C17.1189 14.9 16.8723 14.7596 16.537 14.7596C15.876 14.7596 15.3578 15.3059 15.3578 16.0646C15.3578 16.8239 15.876 17.3696 16.537 17.3696C16.8723 17.3696 17.1189 17.2292 17.2815 17.0054V17.3071H17.794V16.0646ZM35.1143 16.0646C35.1143 15.6278 35.3858 15.269 35.8295 15.269C36.254 15.269 36.5396 15.6123 36.5396 16.0646C36.5396 16.5169 36.254 16.8602 35.8295 16.8602C35.3858 16.8602 35.1143 16.5014 35.1143 16.0646ZM37.0233 16.0646V13.8241H36.5102V15.1238C36.3477 14.9 36.101 14.7596 35.7657 14.7596C35.1047 14.7596 34.5865 15.3059 34.5865 16.0646C34.5865 16.8239 35.1047 17.3696 35.7657 17.3696C36.101 17.3696 36.3477 17.2292 36.5102 17.0054V17.3071H37.0233V16.0646ZM24.1562 15.2434C24.4864 15.2434 24.6987 15.4618 24.7529 15.8462H23.5296C23.5844 15.4874 23.791 15.2434 24.1562 15.2434ZM24.1664 14.7596C23.4755 14.7596 22.9923 15.2898 22.9923 16.0646C22.9923 16.8549 23.4952 17.3696 24.2008 17.3696C24.5559 17.3696 24.881 17.2762 25.1672 17.0215L24.916 16.621C24.7184 16.787 24.4667 16.8811 24.2302 16.8811C23.8999 16.8811 23.5991 16.7198 23.5251 16.2723H25.2756C25.2806 16.205 25.2857 16.1372 25.2857 16.0646C25.2806 15.2898 24.8268 14.7596 24.1664 14.7596ZM30.3552 16.0646C30.3552 15.6278 30.6267 15.269 31.0704 15.269C31.4943 15.269 31.7805 15.6123 31.7805 16.0646C31.7805 16.5169 31.4943 16.8602 31.0704 16.8602C30.6267 16.8602 30.3552 16.5014 30.3552 16.0646ZM32.2637 16.0646V14.822H31.7512V15.1238C31.588 14.9 31.3419 14.7596 31.0066 14.7596C30.3456 14.7596 29.8275 15.3059 29.8275 16.0646C29.8275 16.8239 30.3456 17.3696 31.0066 17.3696C31.3419 17.3696 31.588 17.2292 31.7512 17.0054V17.3071H32.2637V16.0646ZM27.4606 16.0646C27.4606 16.8186 27.9585 17.3696 28.7183 17.3696C29.0733 17.3696 29.3098 17.2863 29.5661 17.0733L29.32 16.6365C29.1275 16.7823 28.9254 16.8602 28.703 16.8602C28.2938 16.8549 27.9929 16.543 27.9929 16.0646C27.9929 15.5861 28.2938 15.2743 28.703 15.269C28.9254 15.269 29.1275 15.3469 29.32 15.4927L29.5661 15.0559C29.3098 14.8429 29.0733 14.7596 28.7183 14.7596C27.9585 14.7596 27.4606 15.3106 27.4606 16.0646ZM34.0689 14.7596C33.7731 14.7596 33.5806 14.9054 33.4474 15.1238V14.822H32.9394V17.3071H33.4525V15.914C33.4525 15.5028 33.6201 15.2743 33.9554 15.2743C34.0593 15.2743 34.1677 15.2898 34.2761 15.3368L34.4341 14.8274C34.3207 14.7804 34.1728 14.7596 34.0689 14.7596ZM20.3291 15.0196C20.0824 14.8482 19.7426 14.7596 19.3678 14.7596C18.7706 14.7596 18.3862 15.0613 18.3862 15.5552C18.3862 15.9605 18.6724 16.2104 19.1996 16.2883L19.4417 16.3246C19.7228 16.3663 19.8555 16.4443 19.8555 16.5847C19.8555 16.7769 19.6681 16.8864 19.3181 16.8864C18.9631 16.8864 18.7068 16.7668 18.5341 16.6264L18.2925 17.0471C18.5736 17.2655 18.9286 17.3696 19.313 17.3696C19.9938 17.3696 20.3884 17.0316 20.3884 16.5585C20.3884 16.1217 20.0779 15.8932 19.5648 15.8152L19.3232 15.7784C19.1014 15.7474 18.9236 15.701 18.9236 15.5344C18.9236 15.3523 19.0912 15.2434 19.3723 15.2434C19.6732 15.2434 19.9644 15.363 20.1072 15.4564L20.3291 15.0196ZM26.9424 14.7596C26.6467 14.7596 26.4542 14.9054 26.3215 15.1238V14.822H25.8135V17.3071H26.326V15.914C26.326 15.5028 26.4937 15.2743 26.829 15.2743C26.9328 15.2743 27.0412 15.2898 27.1496 15.3368L27.3077 14.8274C27.1942 14.7804 27.0463 14.7596 26.9424 14.7596ZM22.5683 14.822H21.7301V14.0681H21.2119V14.822H20.7338V15.316H21.2119V16.4496C21.2119 17.0263 21.4242 17.3696 22.0304 17.3696C22.2528 17.3696 22.5091 17.297 22.6716 17.1774L22.5238 16.7144C22.3708 16.8079 22.2031 16.8549 22.0699 16.8549C21.8136 16.8549 21.7301 16.6882 21.7301 16.4389V15.316H22.5683V14.822ZM14.9045 17.3071V15.7474C14.9045 15.1601 14.5495 14.7649 13.9771 14.7596C13.6762 14.7542 13.3658 14.853 13.1484 15.2017C12.9859 14.9262 12.7296 14.7596 12.3695 14.7596C12.1177 14.7596 11.8716 14.8375 11.6791 15.1285V14.822H11.166V17.3071H11.6836V15.9295C11.6836 15.4981 11.9106 15.269 12.2611 15.269C12.6015 15.269 12.7736 15.5028 12.7736 15.9242V17.3071H13.2918V15.9295C13.2918 15.4981 13.5283 15.269 13.8687 15.269C14.2187 15.269 14.3863 15.5028 14.3863 15.9242V17.3071H14.9045Z" fill="white"/>
</svg>
