<svg width="40" height="40" viewBox="0 0 40 40" fill="none" xmlns="http://www.w3.org/2000/svg">
<path d="M21.875 15C21.7092 15 21.5503 14.9342 21.4331 14.8169C21.3158 14.6997 21.25 14.5408 21.25 14.375V8.125C21.25 6.96468 20.7891 5.85188 19.9686 5.03141C19.1481 4.21094 18.0353 3.75 16.875 3.75C15.7147 3.75 14.6019 4.21094 13.7814 5.03141C12.9609 5.85188 12.5 6.96468 12.5 8.125V14.375C12.5 14.5408 12.4342 14.6997 12.3169 14.8169C12.1997 14.9342 12.0408 15 11.875 15C11.7092 15 11.5503 14.9342 11.4331 14.8169C11.3158 14.6997 11.25 14.5408 11.25 14.375V8.125C11.25 6.63316 11.8426 5.20242 12.8975 4.14752C13.9524 3.09263 15.3832 2.5 16.875 2.5C18.3668 2.5 19.7976 3.09263 20.8525 4.14752C21.9074 5.20242 22.5 6.63316 22.5 8.125V14.375C22.5 14.5408 22.4342 14.6997 22.3169 14.8169C22.1997 14.9342 22.0408 15 21.875 15Z" fill="#DADCDE"/>
<path d="M23.125 36.875H1.875L3.125 11.875H21.875L23.125 36.875Z" fill="#EB423F"/>
<path d="M28.125 36.875H23.125L21.875 11.875H26.875L28.125 36.875Z" fill="#D13330"/>
<path d="M25.6617 33.7492C25.6492 33.75 25.6367 33.75 25.6242 33.75C25.4649 33.7499 25.3116 33.6889 25.1958 33.5796C25.0799 33.4702 25.0101 33.3208 25.0008 33.1617L23.7508 11.9117C23.75 11.8992 23.75 11.8875 23.75 11.875H25.0016L26.2492 33.0883C26.2589 33.2538 26.2024 33.4164 26.0923 33.5404C25.9821 33.6643 25.8272 33.7394 25.6617 33.7492Z" fill="#A82A27"/>
<path d="M38.125 36.875H33.125L33.0469 35.8648V35.8641L31.875 20.625H36.875L38.0273 35.6008V35.6016L38.125 36.875Z" fill="#EBA72E"/>
<path d="M35.6875 33.7469C35.6665 33.7491 35.6454 33.7502 35.6242 33.75C35.4694 33.7498 35.3202 33.6922 35.2054 33.5883C35.0907 33.4844 35.0186 33.3416 35.0031 33.1875L34.9805 32.9641L33.7531 20.6875C33.7509 20.6667 33.7499 20.6459 33.75 20.625H35.0031L36.2313 32.9071L36.2469 33.0625C36.2551 33.1442 36.2471 33.2267 36.2235 33.3053C36.1998 33.3839 36.1609 33.457 36.1089 33.5206C36.057 33.5841 35.993 33.6368 35.9207 33.6756C35.8484 33.7145 35.7692 33.7387 35.6875 33.7469Z" fill="#E09F2C"/>
<path d="M38.125 36.875H37.3734L35.625 34.2515L33.8766 36.875H33.125L33.0469 35.8648V35.864L34.9805 32.964L35.1047 32.7781C35.1619 32.6925 35.2393 32.6224 35.33 32.5739C35.4208 32.5254 35.5221 32.5 35.625 32.5C35.7279 32.5 35.8292 32.5254 35.92 32.5739C36.0107 32.6224 36.0881 32.6925 36.1453 32.7781L36.2313 32.907L38.0273 35.6007V35.6015L38.125 36.875Z" fill="#E09F2C"/>
<path d="M33.125 36.875H16.875L18.125 20.625H31.875L33.125 36.875Z" fill="#F7B030"/>
<path d="M25.625 32.5H24.375C23.5465 32.4991 22.7522 32.1695 22.1663 31.5837C21.5805 30.9978 21.2509 30.2035 21.25 29.375V24.375C21.25 24.2092 21.3158 24.0503 21.4331 23.9331C21.5503 23.8158 21.7092 23.75 21.875 23.75C22.0408 23.75 22.1997 23.8158 22.3169 23.9331C22.4342 24.0503 22.5 24.2092 22.5 24.375V29.375C22.5006 29.8721 22.6983 30.3487 23.0498 30.7002C23.4013 31.0517 23.8779 31.2494 24.375 31.25H25.625C26.1221 31.2494 26.5987 31.0517 26.9502 30.7002C27.3017 30.3487 27.4994 29.8721 27.5 29.375V24.375C27.5 24.2092 27.5658 24.0503 27.6831 23.9331C27.8003 23.8158 27.9592 23.75 28.125 23.75C28.2908 23.75 28.4497 23.8158 28.5669 23.9331C28.6842 24.0503 28.75 24.2092 28.75 24.375V29.375C28.7491 30.2035 28.4195 30.9978 27.8337 31.5837C27.2478 32.1695 26.4535 32.4991 25.625 32.5Z" fill="#E9EEF2"/>
<path d="M7.5 14.375H8.75V18.125H7.5V14.375Z" fill="#DADCDE"/>
<path d="M8.125 15C7.95924 15 7.80027 14.9342 7.68306 14.8169C7.56585 14.6997 7.5 14.5408 7.5 14.375V8.125C7.5 6.63316 8.09263 5.20242 9.14752 4.14752C10.2024 3.09263 11.6332 2.5 13.125 2.5C14.6168 2.5 16.0476 3.09263 17.1025 4.14752C18.1574 5.20242 18.75 6.63316 18.75 8.125V14.375C18.75 14.5408 18.6842 14.6997 18.5669 14.8169C18.4497 14.9342 18.2908 15 18.125 15C17.9592 15 17.8003 14.9342 17.6831 14.8169C17.5658 14.6997 17.5 14.5408 17.5 14.375V8.125C17.5 6.96468 17.0391 5.85188 16.2186 5.03141C15.3981 4.21094 14.2853 3.75 13.125 3.75C11.9647 3.75 10.8519 4.21094 10.0314 5.03141C9.21094 5.85188 8.75 6.96468 8.75 8.125V14.375C8.75 14.5408 8.68415 14.6997 8.56694 14.8169C8.44973 14.9342 8.29076 15 8.125 15Z" fill="#E9EEF2"/>
<path d="M10 23.125H6.25V18.125L8.125 16.875L10 18.125V23.125Z" fill="#F7B030"/>
</svg>
